<svg width="252" height="78" viewBox="0 0 252 78" fill="none" xmlns="http://www.w3.org/2000/svg">
<path d="M60.5762 2.575C61.5512 1.86 63.1112 1.86 62.7212 3.55C61.8762 6.67 57.7162 10.635 54.4012 13.95C49.7212 23.505 44.4562 32.865 39.9062 42.485C40.0362 43.915 40.2962 50.025 38.1512 50.87C36.5912 51.52 36.7862 49.245 36.9162 48.4C37.3062 45.605 38.2162 42.81 39.1262 40.145C38.6712 36.96 37.8912 33.71 36.7212 30.655C30.0262 36.505 23.2012 42.29 15.9212 47.295C13.5812 48.855 11.1112 50.22 8.38117 50.74C5.91117 51.26 2.98617 50.935 1.42617 48.66C0.711172 47.555 0.451172 46.255 0.581172 44.955C0.906172 42.615 2.40117 39.82 4.41617 39.625C5.58617 39.495 6.23617 40.275 6.10617 41.315C5.97617 42.55 5.19617 43.33 4.15617 43.46C4.35117 43.33 4.74117 42.355 4.35117 42.095C3.70117 41.64 2.20617 41.9 1.42617 43.915C0.646172 45.865 1.29617 48.465 3.11617 49.57C5.45617 51.065 8.57617 50.415 10.9812 49.44C13.2562 48.53 15.3362 47.1 17.3512 45.67C24.0462 40.86 30.3512 35.53 36.5262 30.135C35.7462 28.12 34.7712 26.17 33.6012 24.285C30.7412 19.67 25.9962 15.77 20.2112 16.875C14.8162 17.915 10.5262 22.075 8.83617 27.21C7.27617 32.02 9.61617 38.13 15.6612 37.155C18.9112 36.635 22.1612 34.1 22.2262 30.59C22.2912 29.095 21.6412 27.275 20.0162 27.015C18.8462 26.82 18.0012 27.34 17.1562 27.86C16.8962 27.99 16.7662 27.73 16.9612 27.535C17.8712 26.885 18.9762 26.3 20.1462 26.56C21.3812 26.82 22.1612 27.925 22.4862 29.095C23.2012 31.695 21.7712 34.425 19.6912 35.985C17.6112 37.48 14.9462 38.325 12.4762 37.805C6.88617 36.635 5.19617 30.59 7.21117 25.715C8.25117 23.245 9.94117 21.1 12.0862 19.475C16.4412 16.16 22.5512 14.665 27.5562 17.525C32.1062 20.06 34.9662 25.065 36.8512 29.875C40.6212 26.495 44.3912 23.115 48.0962 19.605C50.1762 15.9 52.5162 12.26 55.0512 8.88C56.6112 6.735 58.3012 4.2 60.5762 2.575ZM39.4512 39.17C41.5962 32.93 44.2612 26.885 47.3162 20.97C44.0012 24.155 40.5562 27.275 37.0462 30.33C38.1512 33.19 38.9962 36.18 39.4512 39.17ZM61.6812 4.915C62.1362 4.135 62.2662 3.55 62.2012 3.095C62.1362 2.64 61.7462 2.705 61.4212 2.9C60.3162 3.615 59.4712 4.915 58.7562 6.02C57.3912 8.165 55.9612 10.765 54.7912 13.04C57.1312 10.7 59.9262 7.97 61.6812 4.915ZM38.9962 49.05C39.5812 47.295 39.5812 45.215 39.5162 43.265L38.6712 45.41C38.4762 45.865 36.6562 50.48 37.8262 50.48C38.3462 50.48 38.8012 49.635 38.9962 49.05ZM67.2168 39.04C67.4118 38.845 67.7368 39.105 67.5418 39.365C66.3718 40.86 64.2918 42.42 62.0168 41.965C60.7168 43.98 59.0918 45.865 57.2718 47.555C56.2968 48.465 55.1918 49.44 54.0218 50.155C52.9168 50.805 51.4218 51.325 49.7968 50.805C47.3918 49.96 48.1068 45.345 49.0818 43.46C50.1218 41.25 51.4868 39.17 52.7868 37.025C53.1118 36.505 53.5018 35.4 52.0718 36.245C50.9018 36.96 49.8618 38.325 49.0818 39.365C48.8218 39.69 48.3668 39.56 48.7568 39.04C49.9268 37.545 52.2668 34.165 54.4118 35.27C56.0368 36.115 55.1918 38.715 54.4118 40.21C53.6318 41.835 48.3668 48.4 49.7318 50.09C51.0968 51.715 54.5418 47.88 55.7118 46.645C57.2718 44.825 58.7668 42.875 60.1318 40.925C59.6118 40.145 59.4818 38.91 59.6118 38.065C59.8068 36.83 60.7168 35.66 61.8868 35.205C63.3168 34.62 64.0968 35.985 63.9018 37.22C63.7068 38.715 62.9918 40.21 62.2768 41.445C64.5518 41.77 66.3068 40.21 67.2168 39.04ZM60.4568 40.535C60.7818 40.08 63.1218 36.375 62.5368 35.92C62.1468 35.595 61.4318 36.05 61.1068 36.31C60.0018 37.22 59.6768 39.235 60.4568 40.535ZM77.8824 48.465C80.4824 45.8 83.9274 41.77 86.0074 39.04C86.2024 38.845 86.5274 39.105 86.3324 39.365C84.3824 41.835 80.6124 46.45 78.0124 49.115C76.7124 50.35 75.1524 51.52 73.7224 50.74C72.1624 49.83 72.8774 47.685 73.5274 46.125C72.2274 47.88 70.6674 49.765 68.5874 50.61C67.4824 51.065 66.1174 51.195 65.0774 50.415C63.9724 49.505 63.7124 47.945 63.7774 46.58C63.9074 44.045 65.2724 41.315 66.8974 39.365C68.6524 37.35 71.0574 35.595 73.7224 35.14C74.9574 34.945 76.4524 35.14 77.1024 36.31C77.5574 37.22 77.4924 38.195 77.2974 39.17C77.8824 38.195 78.4674 37.285 79.0524 36.375C79.4424 35.725 80.2874 35.53 80.9374 35.92C81.7174 36.44 81.5874 37.35 81.1974 38.065C80.1574 39.755 79.0524 41.51 78.0124 43.2C77.1024 44.565 76.0624 46.19 75.2174 47.88C74.3724 49.83 75.8024 50.22 77.8824 48.465ZM68.9124 49.765C71.1224 48.855 72.8124 46.58 74.0474 44.63C74.8924 43.265 76.4524 40.795 76.9074 39.3C77.2324 37.935 76.9074 35.92 75.1524 35.92C73.7874 35.92 72.5524 36.83 71.6424 37.675C69.1074 39.885 66.4424 43.85 65.7924 47.555C65.6624 48.53 65.7924 49.7 66.9624 49.96C67.6124 50.09 68.3274 49.96 68.9124 49.765ZM95.1826 49.375C95.7676 50.285 97.5226 49.245 98.2376 48.53C101.033 45.67 103.828 42.225 106.363 39.04C106.558 38.78 106.883 39.17 106.688 39.365C105.323 41.12 103.828 42.94 102.398 44.63C100.708 46.515 98.8226 49.05 97.0026 50.285C96.1576 50.87 95.0526 51.195 94.1426 50.87C93.4276 50.545 92.9726 49.83 92.9726 49.05C93.0376 45.605 96.8726 40.925 98.6926 36.895C98.8876 36.44 98.6276 36.115 98.1076 35.985C96.7426 35.66 94.9876 37.285 93.9476 38.325C92.3226 39.885 90.8926 41.835 89.5926 43.72C88.3576 45.93 87.0576 47.88 85.6926 50.025C85.2376 50.74 84.5226 51.26 83.6776 50.805C83.2226 50.545 82.8976 50.09 82.8976 49.57C82.8976 49.115 83.1576 48.855 83.3526 48.465C84.9776 45.865 86.6026 43.265 88.2926 40.665C88.4226 40.47 91.2176 36.31 89.9176 36.31C89.2676 36.31 88.5526 36.96 88.1626 37.35C87.4476 38 87.1226 38.455 86.3426 39.365C86.0176 39.755 85.5626 39.625 86.0176 39.04C86.6676 38.26 87.0576 37.74 88.1626 36.57C89.2026 35.465 91.1526 34.36 92.0626 35.725C92.7126 36.765 92.1276 38.39 91.1526 40.795C91.9326 39.82 92.8426 38.715 93.7526 37.805C94.6626 36.96 95.5076 36.245 96.6776 35.595C99.0176 34.295 101.358 35.4 100.578 38.325C99.2776 42.095 94.5976 48.53 95.1826 49.375ZM129.664 22.205C130.184 21.945 130.379 22.14 129.859 22.465C126.219 24.35 121.734 23.505 117.834 23.57C113.934 29.875 110.294 36.44 106.524 44.37C106.329 44.825 103.859 50.415 105.874 49.505C106.589 49.18 107.174 48.595 107.759 48.075C110.554 45.28 113.089 42.16 115.624 39.04C115.819 38.78 116.144 39.17 115.949 39.365C113.674 42.16 111.334 45.02 108.929 47.62C108.019 48.595 107.239 49.505 106.069 50.415C105.679 50.74 104.509 51.26 103.729 50.87C102.689 50.35 102.754 48.92 102.884 47.945C103.274 45.345 104.444 42.81 105.549 40.405C108.214 34.62 111.464 29.03 114.844 23.505C112.634 23.44 110.294 23.505 108.084 23.895C107.889 23.96 107.759 23.7 107.954 23.57C110.359 22.79 112.894 22.595 115.364 22.595C118.224 17.85 121.214 13.17 124.204 8.555C124.854 7.645 126.544 8.36 126.154 9.4C126.024 9.725 125.569 10.505 125.309 10.96C122.904 14.795 120.629 18.76 118.354 22.66C120.239 22.725 122.059 22.855 123.879 22.92C125.829 22.92 127.844 22.92 129.664 22.205ZM131.133 44.11H117.873C116.963 44.11 117.158 43.005 117.873 43.005H131.133C131.848 43.005 131.913 44.11 131.133 44.11ZM152.57 32.995C148.28 40.08 148.67 52.365 159.915 50.285C162.71 49.7 165.31 48.465 167.715 46.97C169.73 45.735 171.615 44.24 173.305 42.615C175.19 40.925 177.01 39.04 178.05 36.7C178.96 35.075 181.495 36.44 180.585 38.065C178.31 42.16 175.97 46.125 173.695 50.22C178.18 47.165 182.665 43.33 185.98 39.04C186.175 38.78 186.5 39.105 186.305 39.365C182.73 43.915 177.985 47.88 173.175 51.13C169.47 57.89 166.09 64.91 161.15 71.41C159.72 73.36 157.77 75.765 155.3 76.87C153.155 77.78 150.75 77.26 150.685 74.4C150.62 71.67 152.05 69.07 153.415 66.86C156.405 61.985 160.825 58.475 165.57 55.42C166.805 54.705 168.04 53.925 169.21 53.145C170.9 49.96 172.46 46.775 175.58 41.185C174.54 42.29 173.435 43.265 172.33 44.24C170.25 45.995 167.975 47.555 165.57 48.79C161.54 50.87 156.015 52.3 151.92 49.505C146.85 45.995 148.085 38.195 149.58 33.06C145.81 32.865 142.04 31.955 139.05 29.68C136.97 28.055 135.475 25.715 135.02 23.115C134.565 20.385 135.28 17.59 136.775 15.315C138.205 12.975 140.35 11.22 142.755 9.92C145.095 8.685 147.955 7.97 150.555 8.75C151.725 9.075 152.895 9.79 153.48 10.895C154.13 12 154.13 13.365 153.805 14.6C153.22 16.745 150.295 21.23 147.435 20.775C146.265 20.58 145.875 19.67 146.135 18.955C146.525 17.85 147.63 17.265 148.605 17.46C148.41 17.46 147.825 18.24 148.085 18.63C148.605 19.41 150.555 19.28 151.92 17.33C153.285 15.315 154.585 12.325 152.57 10.31C150.685 8.49 147.5 8.815 145.29 9.79C142.95 10.83 140.87 12.845 139.31 14.86C137.62 17.135 136.515 19.865 136.58 22.725C136.645 25.195 137.685 27.535 139.57 29.16C142.3 31.435 146.07 32.28 149.775 32.41C151.205 28.25 153.415 24.415 155.95 20.84C160.89 14.015 167.325 7.775 175.125 4.005C177.595 2.835 180.585 1.73 183.315 2.38C185.59 2.9 187.085 4.85 186.825 7.385C186.5 10.18 184.875 12.78 183.38 14.99C180.13 19.67 175.84 23.7 171.16 26.82C165.83 30.33 159.265 32.8 152.57 32.995ZM161.605 18.825C158.225 22.985 155.17 27.535 152.895 32.41C156.6 32.215 160.37 31.305 163.815 30.005C169.08 27.99 173.825 24.675 177.855 20.775C179.805 18.825 181.625 16.745 183.12 14.47C184.55 12.195 186.11 9.4 185.98 6.67C185.33 0.494999 176.62 4.915 173.695 6.995C169.08 10.245 165.115 14.405 161.605 18.825ZM159.525 70.435C162.97 65.105 165.7 59.45 168.82 53.925C166.285 55.485 163.75 57.11 161.345 58.93C159.135 60.685 157.12 62.635 155.43 64.91C153.805 67.055 152.375 69.59 151.595 72.125C150.815 74.595 151.27 77.78 154.78 76.35C156.86 75.375 158.225 72.385 159.525 70.435ZM196.393 48.465C198.993 45.8 202.438 41.77 204.518 39.04C204.713 38.845 205.038 39.105 204.843 39.365C202.893 41.835 199.123 46.45 196.523 49.115C195.223 50.35 193.663 51.52 192.233 50.74C190.673 49.83 191.388 47.685 192.038 46.125C190.738 47.88 189.178 49.765 187.098 50.61C185.993 51.065 184.628 51.195 183.588 50.415C182.483 49.505 182.223 47.945 182.288 46.58C182.418 44.045 183.783 41.315 185.408 39.365C187.163 37.35 189.568 35.595 192.233 35.14C193.468 34.945 194.963 35.14 195.613 36.31C196.068 37.22 196.003 38.195 195.808 39.17C196.393 38.195 196.978 37.285 197.563 36.375C197.953 35.725 198.798 35.53 199.448 35.92C200.228 36.44 200.098 37.35 199.708 38.065C198.668 39.755 197.563 41.51 196.523 43.2C195.613 44.565 194.573 46.19 193.728 47.88C192.883 49.83 194.313 50.22 196.393 48.465ZM187.423 49.765C189.633 48.855 191.323 46.58 192.558 44.63C193.403 43.265 194.963 40.795 195.418 39.3C195.743 37.935 195.418 35.92 193.663 35.92C192.298 35.92 191.063 36.83 190.153 37.675C187.618 39.885 184.953 43.85 184.303 47.555C184.173 48.53 184.303 49.7 185.473 49.96C186.123 50.09 186.838 49.96 187.423 49.765ZM218.113 39.04C218.308 38.845 218.633 39.105 218.438 39.365C216.098 42.225 212.263 47.36 209.078 49.895C208.233 50.545 207.063 51.325 206.023 50.935C203.553 50.22 205.438 45.54 206.153 44.11C207.128 42.095 208.363 40.145 209.728 38.39C208.493 38.13 207.258 38.065 206.153 37.415C205.698 38.26 205.178 38.91 204.853 39.365C204.593 39.69 204.203 39.495 204.528 39.04C204.918 38.52 205.308 37.935 205.763 37.22C205.113 36.7 204.983 35.985 205.113 35.14C205.178 34.75 205.438 34.1 205.828 33.71C206.218 33.32 206.868 33.19 207.128 33.775C207.518 34.75 206.933 35.985 206.413 36.96C207.778 37.415 209.338 37.22 210.638 36.765C211.093 36.57 211.613 36.31 212.133 36.245C212.588 36.245 213.043 36.505 213.303 36.895C213.563 37.35 213.498 37.935 213.173 38.325C212.718 38.845 212.328 39.43 211.938 39.95C210.118 42.355 208.428 44.955 206.933 47.555C206.608 48.075 205.763 49.83 206.413 50.155C207.063 50.415 207.973 49.895 208.558 49.505C211.873 47.165 215.838 41.965 218.113 39.04ZM206.023 36.765C206.348 36.245 207.323 34.49 206.673 33.84C206.283 33.515 205.698 34.555 205.633 34.75C205.373 35.4 205.373 36.245 206.023 36.765ZM229.552 47.165C231.892 44.565 234.622 41.38 236.377 39.04C236.572 38.845 236.897 39.105 236.702 39.365C234.947 41.64 231.697 45.605 229.162 48.335C228.122 49.44 225.977 51.715 224.612 50.805C223.312 49.635 223.897 47.555 224.287 45.995C222.857 47.88 221.427 49.7 219.217 50.61C218.112 51.065 216.747 51.195 215.707 50.415C214.602 49.505 214.342 47.945 214.407 46.58C214.537 44.045 215.707 41.575 217.332 39.625C219.087 37.61 221.622 35.595 224.287 35.14C225.522 34.945 227.017 35.14 227.667 36.31C227.992 36.895 228.057 37.545 227.992 38.195C233.127 28.12 238.782 18.63 245.152 9.205C245.412 8.88 245.607 8.425 245.997 8.23C246.972 7.645 247.947 8.815 247.362 9.725C243.072 16.42 238.977 23.115 235.142 30.07C232.152 35.66 228.772 41.25 226.432 47.165C225.652 49.18 226.432 50.285 229.552 47.165ZM227.017 40.08C227.667 38.78 228.057 35.92 225.717 35.92C221.752 35.92 217.072 43.785 216.422 47.555C216.292 48.53 216.422 49.7 217.592 49.96C218.242 50.09 218.957 49.96 219.542 49.765C221.752 48.855 223.377 46.775 224.612 44.825L227.017 40.08ZM250.564 39.04C250.759 38.845 251.084 39.105 250.889 39.365C247.769 43.265 244.714 47.425 240.294 49.96C238.539 50.935 236.134 51.65 234.444 50.155C232.234 48.205 232.689 44.37 234.314 41.575C235.679 39.235 237.759 37.285 240.164 36.05C242.634 34.815 244.259 35.075 244.584 35.14C245.299 35.27 246.014 35.595 246.534 36.18C247.379 37.09 247.184 38.585 246.339 39.755C245.559 40.795 243.674 42.55 240.099 43.525C239.059 43.785 237.564 43.915 236.394 43.85C235.679 45.67 234.184 49.18 237.044 49.895C239.124 50.22 241.139 48.79 242.699 47.555C244.519 46.06 246.209 44.24 247.769 42.485C248.484 41.64 249.134 40.795 249.849 39.95L250.564 39.04ZM240.684 37.285C239.059 39.105 237.564 41.12 236.589 43.395C237.304 43.395 238.019 43.33 238.604 43.265C242.959 42.94 246.404 37.285 245.169 35.985C244.974 35.79 244.584 35.595 244.129 35.595C242.829 35.53 241.594 36.44 240.684 37.285Z" fill="#1E3856"/>
</svg>
